<?xml version="1.0" encoding="UTF-8"?>
<svg class="svg-delete" viewBox="0 0 13 16" version="1.1" xmlns="http://www.w3.org/2000/svg" xmlns:xlink="http://www.w3.org/1999/xlink">
    <title>Delete</title>
    <path class="path" d="M9,2 L12,2 C12.55,2 13,2.45 13,3 L13,4 L0,4 L0,3 C0,2.45 0.45,2 1,2 L4,2 C4.23,0.86 5.29,0 6.5,0 C7.71,0 8.77,0.86 9,2 Z M5,2 L8,2 C7.79,1.42 7.15,1 6.5,1 C5.85,1 5.21,1.42 5,2 Z M1,5 L12,5 L12,15 C12,15.55 11.55,16 11,16 L2,16 C1.45,16 1,15.55 1,15 L1,5 Z M4,14 L4,7 L3,7 L3,14 L4,14 Z M7,14 L7,7 L6,7 L6,14 L7,14 Z M10,14 L10,7 L9,7 L9,14 L10,14 Z"></path>
</svg>